<svg width="216" height="40" viewBox="0 0 216 40" fill="none" xmlns="http://www.w3.org/2000/svg">
<path d="M3.3448 32.8196C10.7305 32.8196 16.724 26.8165 16.724 19.4083V9.35202C16.724 7.49573 15.2299 5.99707 13.3792 5.99707C11.5285 5.99707 10.0344 7.49573 10.0344 9.35202V19.4083C10.0344 23.1124 7.03767 26.1182 3.3448 26.1182C1.49412 26.1182 0 27.6169 0 29.4647C0 31.3125 1.49412 32.8196 3.3448 32.8196Z" fill="#0F172A"/>
<path d="M59.4763 26.1182C55.7835 26.1182 52.7867 23.1124 52.7867 19.4083V19.0848H55.4439C57.2946 19.0848 58.7972 17.5776 58.7972 15.7213C58.7972 13.865 57.2946 12.3578 55.4439 12.3578H52.7867V9.35202C52.7867 7.50424 51.2926 5.99707 49.4419 5.99707C47.5913 5.99707 46.0971 7.49573 46.0971 9.35202V19.4083C46.0971 26.8165 52.0906 32.8196 59.4763 32.8196C61.327 32.8196 62.8211 31.321 62.8211 29.4647C62.8211 27.6084 61.327 26.1182 59.4763 26.1182Z" fill="#0F172A"/>
<path d="M44.1786 14.7081C44.1786 14.6996 44.1786 14.6996 44.1786 14.7081C44.1871 14.6996 44.1956 14.6996 44.1956 14.6996C43.1429 11.9236 41.1734 9.48831 38.4229 7.88748C32.0389 4.17489 23.8891 6.37179 20.2132 12.7922C16.5288 19.204 18.7191 27.4041 25.0946 31.1081C29.7892 33.833 35.4431 33.3561 39.5689 30.3588L39.5434 30.3248C40.4943 29.7372 41.1225 28.6813 41.1225 27.4807C41.1225 25.6329 39.6283 24.1343 37.7862 24.1343C36.8948 24.1343 36.0798 24.4834 35.4855 25.0624C33.4821 26.4163 30.8164 26.6292 28.5667 25.386L42.0393 19.1104C42.8203 18.8719 43.5165 18.344 43.9494 17.5777C44.4758 16.6665 44.5267 15.6192 44.1786 14.7081ZM35.0865 13.6863C35.4855 13.9162 35.8421 14.1801 36.1732 14.4696L25.0861 19.6213C25.0606 18.4377 25.3493 17.2371 25.9775 16.1386C27.8197 12.9369 31.8945 11.8385 35.0865 13.6863Z" fill="#0F172A"/>
<path d="M71.5014 0.00289201C73.0026 -0.0813831 73.859 1.6954 72.8615 2.82484L63.9829 12.8782C62.9432 14.0555 61.0055 13.3029 61.0258 11.7296L61.0786 7.6506C61.0855 7.11616 60.8414 6.60964 60.4197 6.28342L57.2007 3.7936C55.9592 2.83329 56.5739 0.840888 58.1387 0.753041L71.5014 0.00289201Z" fill="#F648BF"/>
<path d="M72.4963 32.7814C71.2618 32.7814 70.1646 32.5147 69.2044 31.9813C68.2596 31.4327 67.5128 30.6783 66.9642 29.7182C66.4308 28.7581 66.1641 27.6608 66.1641 26.4264C66.1641 25.1767 66.4155 24.0794 66.9184 23.1345C67.4366 22.1744 68.1453 21.42 69.0444 20.8714C69.9436 20.3227 70.9799 20.0484 72.1534 20.0484C73.3116 20.0484 74.3175 20.3151 75.1709 20.8485C76.0396 21.3667 76.7101 22.0906 77.1826 23.0202C77.655 23.9499 77.8912 25.009 77.8912 26.1978C77.8912 26.4416 77.815 26.6397 77.6626 26.7921C77.5102 26.9293 77.3121 26.9979 77.0683 26.9979H67.8328C67.9243 27.8208 68.1757 28.5523 68.5872 29.1924C68.9987 29.8173 69.5397 30.3126 70.2103 30.6783C70.8808 31.0288 71.6428 31.2041 72.4963 31.2041C73.0449 31.2041 73.5936 31.1127 74.1422 30.9298C74.7061 30.7317 75.1557 30.4878 75.4909 30.1983C75.6586 30.0611 75.8491 29.9925 76.0624 29.9925C76.2758 29.9773 76.4587 30.0306 76.6111 30.1525C76.8092 30.3354 76.9083 30.5335 76.9083 30.7469C76.9235 30.9603 76.8397 31.1431 76.6568 31.2955C76.1539 31.7223 75.5138 32.0804 74.7366 32.37C73.9593 32.6443 73.2126 32.7814 72.4963 32.7814ZM72.1534 21.6258C70.9799 21.6258 70.0122 21.9915 69.2502 22.723C68.4882 23.4393 68.031 24.3766 67.8786 25.5348H76.2453C76.1234 24.3766 75.6967 23.4393 74.9652 22.723C74.2489 21.9915 73.3116 21.6258 72.1534 21.6258Z" fill="#0F172A"/>
<path d="M82.8806 32.6671C81.9662 32.6671 81.2118 32.3014 80.6175 31.5699C80.0231 30.8231 79.7259 29.8706 79.7259 28.7124V15.6822C79.7259 15.4231 79.8021 15.2173 79.9545 15.0649C80.1222 14.8973 80.3355 14.8135 80.5946 14.8135C80.8537 14.8135 81.0594 14.8973 81.2118 15.0649C81.3795 15.2173 81.4633 15.4231 81.4633 15.6822V28.7124C81.4633 29.3677 81.5928 29.9011 81.8519 30.3126C82.1262 30.724 82.4691 30.9298 82.8806 30.9298H83.4521C83.6807 30.9298 83.8636 31.0136 84.0008 31.1812C84.1379 31.3336 84.2065 31.5394 84.2065 31.7985C84.2065 32.0575 84.1074 32.2709 83.9093 32.4385C83.7264 32.5909 83.4826 32.6671 83.1778 32.6671H82.8806Z" fill="#0F172A"/>
<path d="M90.9263 32.7814C89.6918 32.7814 88.5945 32.5147 87.6344 31.9813C86.6895 31.4327 85.9428 30.6783 85.3941 29.7182C84.8607 28.7581 84.594 27.6608 84.594 26.4264C84.594 25.1767 84.8455 24.0794 85.3484 23.1345C85.8666 22.1744 86.5752 21.42 87.4744 20.8714C88.3736 20.3227 89.4099 20.0484 90.5834 20.0484C91.7416 20.0484 92.7474 20.3151 93.6009 20.8485C94.4696 21.3667 95.1401 22.0906 95.6126 23.0202C96.085 23.9499 96.3212 25.009 96.3212 26.1978C96.3212 26.4416 96.245 26.6397 96.0926 26.7921C95.9402 26.9293 95.7421 26.9979 95.4983 26.9979H86.2628C86.3543 27.8208 86.6057 28.5523 87.0172 29.1924C87.4287 29.8173 87.9697 30.3126 88.6403 30.6783C89.3108 31.0288 90.0728 31.2041 90.9263 31.2041C91.4749 31.2041 92.0235 31.1127 92.5722 30.9298C93.1361 30.7317 93.5856 30.4878 93.9209 30.1983C94.0886 30.0611 94.2791 29.9925 94.4924 29.9925C94.7058 29.9773 94.8887 30.0306 95.0411 30.1525C95.2392 30.3354 95.3382 30.5335 95.3382 30.7469C95.3535 30.9603 95.2697 31.1431 95.0868 31.2955C94.5839 31.7223 93.9438 32.0804 93.1665 32.37C92.3893 32.6443 91.6425 32.7814 90.9263 32.7814ZM90.5834 21.6258C89.4099 21.6258 88.4421 21.9915 87.6801 22.723C86.9181 23.4393 86.4609 24.3766 86.3085 25.5348H94.6753C94.5534 24.3766 94.1267 23.4393 93.3951 22.723C92.6789 21.9915 91.7416 21.6258 90.5834 21.6258Z" fill="#0F172A"/>
<path d="M99.5047 32.6671C99.2303 32.6671 99.0094 32.5909 98.8417 32.4385C98.6893 32.2709 98.6131 32.0575 98.6131 31.7985V21.0543C98.6131 20.7952 98.6893 20.5818 98.8417 20.4142C99.0094 20.2465 99.2303 20.1627 99.5047 20.1627C99.7637 20.1627 99.9695 20.2465 100.122 20.4142C100.29 20.5818 100.373 20.7952 100.373 21.0543V21.5572C100.8 21.0695 101.303 20.6961 101.882 20.437C102.461 20.1627 103.101 20.0256 103.802 20.0256C104.656 20.0256 105.41 20.2161 106.065 20.5971C106.736 20.9781 107.269 21.5038 107.666 22.1744C108.092 21.5038 108.664 20.9781 109.38 20.5971C110.096 20.2161 110.897 20.0256 111.78 20.0256C112.68 20.0256 113.472 20.2389 114.158 20.6656C114.859 21.0924 115.4 21.6943 115.781 22.4716C116.177 23.2488 116.375 24.1632 116.375 25.2148V31.7985C116.375 32.0575 116.292 32.2709 116.124 32.4385C115.971 32.5909 115.766 32.6671 115.507 32.6671C115.248 32.6671 115.034 32.5909 114.867 32.4385C114.699 32.2709 114.615 32.0575 114.615 31.7985V25.2148C114.615 24.1327 114.333 23.2793 113.769 22.6545C113.205 22.0144 112.482 21.6943 111.598 21.6943C110.653 21.6943 109.875 22.0144 109.266 22.6545C108.672 23.2793 108.382 24.1175 108.397 25.1691V25.2148V31.7985C108.397 32.0575 108.313 32.2709 108.146 32.4385C107.993 32.5909 107.788 32.6671 107.529 32.6671C107.269 32.6671 107.056 32.5909 106.888 32.4385C106.721 32.2709 106.637 32.0575 106.637 31.7985V25.2148C106.637 24.1327 106.355 23.2793 105.791 22.6545C105.227 22.0144 104.503 21.6943 103.619 21.6943C102.675 21.6943 101.897 22.0068 101.288 22.6316C100.678 23.2412 100.373 24.0413 100.373 25.0319V31.7985C100.373 32.0575 100.29 32.2709 100.122 32.4385C99.9695 32.5909 99.7637 32.6671 99.5047 32.6671Z" fill="#0F172A"/>
<path d="M125.251 32.7814C124.017 32.7814 122.919 32.5147 121.959 31.9813C121.014 31.4327 120.268 30.6783 119.719 29.7182C119.186 28.7581 118.919 27.6608 118.919 26.4264C118.919 25.1767 119.17 24.0794 119.673 23.1345C120.191 22.1744 120.9 21.42 121.799 20.8714C122.698 20.3227 123.735 20.0484 124.908 20.0484C126.066 20.0484 127.072 20.3151 127.926 20.8485C128.794 21.3667 129.465 22.0906 129.937 23.0202C130.41 23.9499 130.646 25.009 130.646 26.1978C130.646 26.4416 130.57 26.6397 130.417 26.7921C130.265 26.9293 130.067 26.9979 129.823 26.9979H120.588C120.679 27.8208 120.931 28.5523 121.342 29.1924C121.754 29.8173 122.295 30.3126 122.965 30.6783C123.636 31.0288 124.398 31.2041 125.251 31.2041C125.8 31.2041 126.348 31.1127 126.897 30.9298C127.461 30.7317 127.91 30.4878 128.246 30.1983C128.413 30.0611 128.604 29.9925 128.817 29.9925C129.031 29.9773 129.213 30.0306 129.366 30.1525C129.564 30.3354 129.663 30.5335 129.663 30.7469C129.678 30.9603 129.594 31.1431 129.412 31.2955C128.909 31.7223 128.269 32.0804 127.491 32.37C126.714 32.6443 125.967 32.7814 125.251 32.7814ZM124.908 21.6258C123.735 21.6258 122.767 21.9915 122.005 22.723C121.243 23.4393 120.786 24.3766 120.633 25.5348H129C128.878 24.3766 128.451 23.4393 127.72 22.723C127.004 21.9915 126.066 21.6258 124.908 21.6258Z" fill="#0F172A"/>
<path d="M133.829 32.6671C133.555 32.6671 133.334 32.5909 133.167 32.4385C133.014 32.2709 132.938 32.0575 132.938 31.7985V21.0543C132.938 20.7799 133.014 20.5666 133.167 20.4142C133.334 20.2465 133.555 20.1627 133.829 20.1627C134.089 20.1627 134.294 20.2465 134.447 20.4142C134.614 20.5666 134.698 20.7799 134.698 21.0543V21.8315C135.186 21.2676 135.788 20.8257 136.504 20.5056C137.236 20.1856 138.02 20.0256 138.859 20.0256C139.941 20.0256 140.908 20.2542 141.762 20.7114C142.615 21.1533 143.286 21.8086 143.774 22.6773C144.277 23.546 144.528 24.6052 144.528 25.8549V31.7985C144.528 32.0423 144.444 32.248 144.277 32.4157C144.109 32.5833 143.903 32.6671 143.659 32.6671C143.4 32.6671 143.187 32.5833 143.019 32.4157C142.852 32.248 142.768 32.0423 142.768 31.7985V25.8549C142.768 24.4375 142.372 23.3936 141.579 22.723C140.802 22.0372 139.834 21.6943 138.676 21.6943C137.929 21.6943 137.251 21.8391 136.641 22.1287C136.047 22.4182 135.574 22.8145 135.224 23.3174C134.873 23.8203 134.698 24.3918 134.698 25.0319V31.7985C134.698 32.0575 134.614 32.2709 134.447 32.4385C134.294 32.5909 134.089 32.6671 133.829 32.6671Z" fill="#0F172A"/>
<path d="M152.615 32.6671C151.807 32.6671 151.083 32.4766 150.443 32.0956C149.818 31.7146 149.323 31.1965 148.957 30.5412C148.592 29.8706 148.409 29.1086 148.409 28.2552V22.1515H146.923C146.694 22.1515 146.504 22.083 146.351 21.9458C146.199 21.7934 146.123 21.6105 146.123 21.3972C146.123 21.1686 146.199 20.9857 146.351 20.8485C146.504 20.6961 146.694 20.6199 146.923 20.6199H148.409V17.0766C148.409 16.8175 148.485 16.6042 148.637 16.4365C148.805 16.2689 149.018 16.1851 149.277 16.1851C149.536 16.1851 149.75 16.2689 149.917 16.4365C150.085 16.6042 150.169 16.8175 150.169 17.0766V20.6199H152.752C152.981 20.6199 153.171 20.6961 153.324 20.8485C153.476 20.9857 153.552 21.1686 153.552 21.3972C153.552 21.6105 153.476 21.7934 153.324 21.9458C153.171 22.083 152.981 22.1515 152.752 22.1515H150.169V28.2552C150.169 29.0324 150.397 29.6725 150.855 30.1754C151.312 30.6631 151.899 30.9069 152.615 30.9069H153.232C153.476 30.9069 153.674 30.9907 153.826 31.1584C153.979 31.326 154.055 31.5394 154.055 31.7985C154.055 32.0575 153.964 32.2709 153.781 32.4385C153.598 32.5909 153.369 32.6671 153.095 32.6671H152.615Z" fill="#0F172A"/>
<path d="M160.601 32.7814C159.702 32.7814 158.81 32.629 157.926 32.3242C157.042 32.0194 156.326 31.5622 155.777 30.9526C155.61 30.7698 155.541 30.564 155.572 30.3354C155.602 30.1068 155.716 29.9087 155.915 29.7411C156.128 29.5887 156.349 29.5277 156.578 29.5582C156.806 29.5887 156.997 29.6877 157.149 29.8554C157.515 30.2821 157.995 30.6097 158.589 30.8383C159.199 31.0669 159.869 31.1812 160.601 31.1812C161.729 31.1812 162.544 30.9907 163.047 30.6097C163.55 30.2135 163.809 29.7411 163.824 29.1924C163.824 28.6438 163.565 28.1942 163.047 27.8437C162.529 27.4779 161.675 27.196 160.487 26.9979C158.947 26.754 157.82 26.3273 157.103 25.7177C156.387 25.1081 156.029 24.3842 156.029 23.546C156.029 22.7688 156.235 22.1211 156.646 21.6029C157.058 21.0847 157.606 20.6961 158.292 20.437C158.978 20.178 159.732 20.0484 160.555 20.0484C161.576 20.0484 162.453 20.2237 163.184 20.5742C163.931 20.9247 164.533 21.3972 164.99 21.9915C165.142 22.1896 165.203 22.3954 165.173 22.6087C165.142 22.8221 165.02 22.9974 164.807 23.1345C164.624 23.2412 164.411 23.2793 164.167 23.2488C163.938 23.2031 163.74 23.0888 163.573 22.9059C162.826 22.0525 161.805 21.6258 160.509 21.6258C159.671 21.6258 159.001 21.801 158.498 22.1515C157.995 22.4868 157.743 22.9135 157.743 23.4317C157.743 23.9499 157.964 24.3766 158.406 24.7119C158.864 25.0471 159.717 25.3215 160.967 25.5348C162.11 25.7177 163.009 25.992 163.664 26.3578C164.335 26.7083 164.807 27.1274 165.081 27.6151C165.371 28.0875 165.516 28.6057 165.516 29.1696C165.516 29.8858 165.302 30.5183 164.876 31.0669C164.464 31.6003 163.885 32.0194 163.138 32.3242C162.407 32.629 161.561 32.7814 160.601 32.7814Z" fill="#0F172A"/>
</svg>
