<svg width="216" height="60" viewBox="0 0 216 60" fill="none" xmlns="http://www.w3.org/2000/svg">
<path d="M3.34464 32.8183C10.73 32.8183 16.7232 26.8155 16.7232 19.4077V9.35186C16.7232 7.49566 15.2292 5.99707 13.3786 5.99707C11.528 5.99707 10.0339 7.49566 10.0339 9.35186V19.4077C10.0339 23.1116 7.03733 26.1173 3.34464 26.1173C1.49405 26.1173 0 27.6159 0 29.4636C0 31.3113 1.49405 32.8183 3.34464 32.8183Z" fill="#0F172A"/>
<path d="M59.4735 26.1173C55.7808 26.1173 52.7842 23.1116 52.7842 19.4077V19.0842H55.4413C57.2919 19.0842 58.7944 17.5771 58.7944 15.7208C58.7944 13.8646 57.2919 12.3575 55.4413 12.3575H52.7842V9.35186C52.7842 7.50417 51.2902 5.99707 49.4396 5.99707C47.589 5.99707 46.095 7.49566 46.095 9.35186V19.4077C46.095 26.8155 52.0881 32.8183 59.4735 32.8183C61.3241 32.8183 62.8182 31.3198 62.8182 29.4636C62.8182 27.6074 61.3241 26.1173 59.4735 26.1173Z" fill="#0F172A"/>
<path d="M44.1765 14.7077C44.1765 14.6991 44.1765 14.6991 44.1765 14.7077C44.185 14.6991 44.1935 14.6991 44.1935 14.6991C43.1409 11.9234 41.1714 9.48815 38.421 7.88739C32.0373 4.17498 23.888 6.37177 20.2123 12.7919C16.5281 19.2034 18.7182 27.4031 25.0934 31.107C29.7878 33.8317 35.4414 33.3548 39.567 30.3577L39.5416 30.3236C40.4923 29.7361 41.1205 28.6803 41.1205 27.4797C41.1205 25.632 39.6265 24.1334 37.7844 24.1334C36.893 24.1334 36.0781 24.4825 35.4839 25.0615C33.4805 26.4154 30.8149 26.6282 28.5654 25.3851L42.0373 19.1098C42.8183 18.8713 43.5144 18.3434 43.9473 17.5771C44.4736 16.666 44.5246 15.6187 44.1765 14.7077ZM35.0849 13.6859C35.4839 13.9158 35.8404 14.1797 36.1715 14.4692L25.0849 19.6206C25.0594 18.4371 25.3481 17.2365 25.9762 16.1381C27.8183 12.9366 31.893 11.8382 35.0849 13.6859Z" fill="#0F172A"/>
<path d="M71.4987 0.00289187C72.9999 -0.0813793 73.8562 1.69532 72.8588 2.8247L63.9806 12.8776C62.9409 14.0548 61.0033 13.3022 61.0237 11.7291L61.0765 7.65023C61.0834 7.11582 60.8392 6.60932 60.4175 6.28312L57.1988 3.79342C55.9573 2.83316 56.5719 0.840848 58.1367 0.753005L71.4987 0.00289187Z" fill="#FA5450"/>
<path d="M71.1903 32.7801C70.2912 32.7801 69.3997 32.6278 68.5158 32.323C67.6319 32.0182 66.9157 31.561 66.3671 30.9514C66.1994 30.7686 66.1309 30.5628 66.1613 30.3342C66.1918 30.1057 66.3061 29.9075 66.5042 29.7399C66.7176 29.5875 66.9385 29.5266 67.1671 29.557C67.3957 29.5875 67.5862 29.6866 67.7386 29.8542C68.1043 30.2809 68.5844 30.6085 69.1787 30.8371C69.7883 31.0657 70.4588 31.18 71.1903 31.18C72.318 31.18 73.1333 30.9895 73.6362 30.6085C74.1391 30.2123 74.3982 29.7399 74.4134 29.1913C74.4134 28.6427 74.1543 28.1931 73.6362 27.8426C73.1181 27.4769 72.2647 27.1949 71.076 26.9968C69.5368 26.753 68.4091 26.3263 67.6929 25.7167C66.9766 25.1072 66.6185 24.3833 66.6185 23.5451C66.6185 22.7679 66.8242 22.1203 67.2357 21.6021C67.6472 21.084 68.1958 20.6954 68.8815 20.4363C69.5673 20.1773 70.3217 20.0477 71.1446 20.0477C72.1656 20.0477 73.0419 20.223 73.7733 20.5735C74.5201 20.924 75.122 21.3964 75.5792 21.9907C75.7316 22.1888 75.7926 22.3946 75.7621 22.6079C75.7316 22.8213 75.6097 22.9965 75.3963 23.1337C75.2135 23.2404 75.0001 23.2785 74.7563 23.248C74.5277 23.2023 74.3296 23.088 74.162 22.9051C73.4152 22.0517 72.3942 21.625 71.0989 21.625C70.2607 21.625 69.5902 21.8002 69.0873 22.1507C68.5844 22.486 68.3329 22.9127 68.3329 23.4308C68.3329 23.949 68.5539 24.3757 68.9958 24.7109C69.453 25.0462 70.3064 25.3205 71.556 25.5339C72.699 25.7167 73.5981 25.991 74.2534 26.3568C74.9239 26.7073 75.3963 27.1264 75.6706 27.614C75.9602 28.0864 76.105 28.6046 76.105 29.1684C76.105 29.8847 75.8916 30.5171 75.4649 31.0657C75.0534 31.5991 74.4744 32.0182 73.7276 32.323C72.9961 32.6278 72.1504 32.7801 71.1903 32.7801Z" fill="#0F172A"/>
<path d="M79.3524 32.6658C79.078 32.6658 78.8571 32.5897 78.6894 32.4373C78.5371 32.2696 78.4609 32.0563 78.4609 31.7972V21.0535C78.4609 20.7945 78.5371 20.5811 78.6894 20.4135C78.8571 20.2458 79.078 20.162 79.3524 20.162C79.6114 20.162 79.8172 20.2458 79.9695 20.4135C80.1372 20.5811 80.221 20.7945 80.221 21.0535V21.5564C80.6477 21.0688 81.1506 20.6954 81.7297 20.4363C82.3088 20.162 82.9488 20.0249 83.6498 20.0249C84.5032 20.0249 85.2576 20.2154 85.9129 20.5963C86.5834 20.9773 87.1168 21.5031 87.513 22.1736C87.9397 21.5031 88.5112 20.9773 89.2274 20.5963C89.9437 20.2154 90.7437 20.0249 91.6276 20.0249C92.5267 20.0249 93.3192 20.2382 94.0049 20.6649C94.7059 21.0916 95.2469 21.6936 95.6279 22.4708C96.0241 23.248 96.2222 24.1623 96.2222 25.2138V31.7972C96.2222 32.0563 96.1384 32.2696 95.9708 32.4373C95.8184 32.5897 95.6127 32.6658 95.3536 32.6658C95.0945 32.6658 94.8812 32.5897 94.7135 32.4373C94.5459 32.2696 94.4621 32.0563 94.4621 31.7972V25.2138C94.4621 24.1319 94.1802 23.2785 93.6163 22.6536C93.0525 22.0136 92.3286 21.6936 91.4447 21.6936C90.4999 21.6936 89.7227 22.0136 89.1131 22.6536C88.5188 23.2785 88.2292 24.1166 88.2445 25.1681V25.2138V31.7972C88.2445 32.0563 88.1607 32.2696 87.993 32.4373C87.8406 32.5897 87.6349 32.6658 87.3758 32.6658C87.1168 32.6658 86.9034 32.5897 86.7358 32.4373C86.5682 32.2696 86.4843 32.0563 86.4843 31.7972V25.2138C86.4843 24.1319 86.2024 23.2785 85.6386 22.6536C85.0747 22.0136 84.3508 21.6936 83.467 21.6936C82.5221 21.6936 81.7449 22.006 81.1354 22.6308C80.5258 23.2404 80.221 24.0404 80.221 25.031V31.7972C80.221 32.0563 80.1372 32.2696 79.9695 32.4373C79.8172 32.5897 79.6114 32.6658 79.3524 32.6658Z" fill="#0F172A"/>
<path d="M104.938 32.7801C103.764 32.7801 102.713 32.5058 101.783 31.9572C100.853 31.3934 100.114 30.6314 99.5657 29.6713C99.0323 28.7113 98.7656 27.6293 98.7656 26.4254C98.7656 25.2062 99.04 24.1166 99.5886 23.1565C100.152 22.1965 100.914 21.4421 101.874 20.8935C102.835 20.3297 103.917 20.0477 105.12 20.0477C106.324 20.0477 107.399 20.3297 108.344 20.8935C109.304 21.4421 110.058 22.1965 110.607 23.1565C111.17 24.1166 111.46 25.2062 111.475 26.4254V31.7972C111.475 32.0563 111.391 32.2696 111.224 32.4373C111.056 32.5897 110.843 32.6658 110.584 32.6658C110.325 32.6658 110.111 32.5897 109.944 32.4373C109.776 32.2696 109.692 32.0563 109.692 31.7972V30.4028C109.174 31.1343 108.504 31.7134 107.681 32.1401C106.858 32.5668 105.943 32.7801 104.938 32.7801ZM105.12 31.18C106.004 31.18 106.789 30.9743 107.475 30.5628C108.176 30.1514 108.725 29.5875 109.121 28.8713C109.532 28.1398 109.738 27.3245 109.738 26.4254C109.738 25.511 109.532 24.6957 109.121 23.9795C108.725 23.2632 108.176 22.6994 107.475 22.2879C106.789 21.8612 106.004 21.6479 105.12 21.6479C104.252 21.6479 103.467 21.8612 102.766 22.2879C102.065 22.6994 101.509 23.2632 101.097 23.9795C100.686 24.6957 100.48 25.511 100.48 26.4254C100.48 27.3245 100.686 28.1398 101.097 28.8713C101.509 29.5875 102.065 30.1514 102.766 30.5628C103.467 30.9743 104.252 31.18 105.12 31.18Z" fill="#0F172A"/>
<path d="M115.081 32.6658C114.502 32.6658 114.213 32.3763 114.213 31.7972V21.0307C114.213 20.4516 114.502 20.162 115.081 20.162C115.66 20.162 115.95 20.4516 115.95 21.0307V22.0136C116.407 21.404 116.971 20.924 117.642 20.5735C118.312 20.2077 119.051 20.0249 119.859 20.0249C120.56 20.0249 121.101 20.1239 121.482 20.322C121.863 20.5201 122.008 20.8097 121.916 21.1907C121.84 21.5412 121.657 21.724 121.368 21.7393C121.093 21.7393 120.766 21.724 120.385 21.6936C119.531 21.6174 118.769 21.7088 118.099 21.9679C117.443 22.2117 116.918 22.5927 116.521 23.1108C116.141 23.629 115.95 24.2461 115.95 24.9624V31.7972C115.95 32.3763 115.66 32.6658 115.081 32.6658Z" fill="#0F172A"/>
<path d="M128.888 32.6658C128.081 32.6658 127.357 32.4754 126.717 32.0944C126.092 31.7134 125.597 31.1953 125.231 30.54C124.865 29.8694 124.682 29.1075 124.682 28.2541V22.1507H123.196C122.968 22.1507 122.777 22.0822 122.625 21.945C122.473 21.7926 122.396 21.6098 122.396 21.3964C122.396 21.1678 122.473 20.9849 122.625 20.8478C122.777 20.6954 122.968 20.6192 123.196 20.6192H124.682V17.0761C124.682 16.817 124.758 16.6036 124.911 16.436C125.079 16.2684 125.292 16.1846 125.551 16.1846C125.81 16.1846 126.023 16.2684 126.191 16.436C126.359 16.6036 126.442 16.817 126.442 17.0761V20.6192H129.025C129.254 20.6192 129.445 20.6954 129.597 20.8478C129.749 20.9849 129.826 21.1678 129.826 21.3964C129.826 21.6098 129.749 21.7926 129.597 21.945C129.445 22.0822 129.254 22.1507 129.025 22.1507H126.442V28.2541C126.442 29.0313 126.671 29.6713 127.128 30.1742C127.585 30.6619 128.172 30.9057 128.888 30.9057H129.506C129.749 30.9057 129.947 30.9895 130.1 31.1572C130.252 31.3248 130.328 31.5381 130.328 31.7972C130.328 32.0563 130.237 32.2696 130.054 32.4373C129.871 32.5897 129.643 32.6658 129.368 32.6658H128.888Z" fill="#0F172A"/>
<path d="M68.4012 52.9849C68.1574 52.9849 67.9516 52.9011 67.784 52.7334C67.6164 52.5658 67.5326 52.3524 67.5326 52.0934V42.4698H66.0696C65.8258 42.4698 65.6277 42.4012 65.4753 42.264C65.3381 42.1116 65.2695 41.9288 65.2695 41.7154C65.2695 41.4868 65.3381 41.304 65.4753 41.1668C65.6277 41.0144 65.8258 40.9382 66.0696 40.9382H67.5326V40.3667C67.5326 39.3457 67.7078 38.439 68.0583 37.6465C68.4241 36.8541 69.0032 36.2293 69.7956 35.7721C70.588 35.2997 71.6472 35.0635 72.973 35.0635C73.5826 35.0635 74.1616 35.1321 74.7103 35.2692C75.2589 35.4064 75.7008 35.6045 76.0361 35.8635C76.3866 36.1074 76.5618 36.4122 76.5618 36.7779C76.5618 37.4332 76.1885 37.7608 75.4417 37.7608C75.1827 37.7608 74.9465 37.6999 74.7331 37.578C74.5198 37.4408 74.2988 37.2884 74.0702 37.1208C73.8569 36.9379 73.6207 36.7855 73.3616 36.6636C73.1025 36.5264 72.7901 36.4579 72.4244 36.4579C71.51 36.4579 70.7557 36.7474 70.1613 37.3265C69.5822 37.8904 69.2927 38.9038 69.2927 40.3667V40.9382H72.0586C72.2872 40.9382 72.4777 41.0144 72.6301 41.1668C72.7825 41.304 72.8587 41.4868 72.8587 41.7154C72.8587 41.9288 72.7825 42.1116 72.6301 42.264C72.4777 42.4012 72.2872 42.4698 72.0586 42.4698H69.2927V52.0934C69.2927 52.3524 69.2089 52.5658 69.0413 52.7334C68.8736 52.9011 68.6603 52.9849 68.4012 52.9849ZM75.4875 52.9849C75.2132 52.9849 74.9922 52.9087 74.8246 52.7563C74.6722 52.5886 74.596 52.3677 74.596 52.0934V41.3725C74.596 41.0982 74.6722 40.8849 74.8246 40.7325C74.9922 40.5649 75.2132 40.481 75.4875 40.481C75.7465 40.481 75.9523 40.5649 76.1047 40.7325C76.2723 40.8849 76.3561 41.0982 76.3561 41.3725V52.0934C76.3561 52.3677 76.2723 52.5886 76.1047 52.7563C75.9523 52.9087 75.7465 52.9849 75.4875 52.9849Z" fill="#0F172A"/>
<path d="M83.1554 52.9849C82.241 52.9849 81.4867 52.6191 80.8924 51.8876C80.298 51.1409 80.0009 50.1885 80.0009 49.0303V36.0007C80.0009 35.7416 80.077 35.5359 80.2294 35.3835C80.3971 35.2159 80.6104 35.1321 80.8695 35.1321C81.1286 35.1321 81.3343 35.2159 81.4867 35.3835C81.6543 35.5359 81.7381 35.7416 81.7381 36.0007V49.0303C81.7381 49.6856 81.8677 50.2189 82.1267 50.6304C82.401 51.0419 82.7439 51.2476 83.1554 51.2476H83.7269C83.9554 51.2476 84.1383 51.3314 84.2755 51.499C84.4126 51.6514 84.4812 51.8572 84.4812 52.1162C84.4812 52.3753 84.3821 52.5886 84.184 52.7563C84.0012 52.9087 83.7573 52.9849 83.4525 52.9849H83.1554Z" fill="#0F172A"/>
<path d="M91.5726 52.9849C90.765 52.9849 90.0411 52.7944 89.401 52.4134C88.7762 52.0324 88.281 51.5143 87.9152 50.859C87.5495 50.1885 87.3666 49.4265 87.3666 48.5731V42.4698H85.8808C85.6522 42.4698 85.4617 42.4012 85.3093 42.264C85.1569 42.1116 85.0807 41.9288 85.0807 41.7154C85.0807 41.4868 85.1569 41.304 85.3093 41.1668C85.4617 41.0144 85.6522 40.9382 85.8808 40.9382H87.3666V37.3951C87.3666 37.136 87.4428 36.9227 87.5952 36.755C87.7628 36.5874 87.9762 36.5036 88.2352 36.5036C88.4943 36.5036 88.7077 36.5874 88.8753 36.755C89.0429 36.9227 89.1267 37.136 89.1267 37.3951V40.9382H91.7098C91.9384 40.9382 92.1289 41.0144 92.2813 41.1668C92.4337 41.304 92.5099 41.4868 92.5099 41.7154C92.5099 41.9288 92.4337 42.1116 92.2813 42.264C92.1289 42.4012 91.9384 42.4698 91.7098 42.4698H89.1267V48.5731C89.1267 49.3503 89.3553 49.9904 89.8125 50.4932C90.2697 50.9809 90.8564 51.2247 91.5726 51.2247H92.1898C92.4337 51.2247 92.6318 51.3085 92.7842 51.4762C92.9366 51.6438 93.0128 51.8572 93.0128 52.1162C93.0128 52.3753 92.9213 52.5886 92.7384 52.7563C92.5556 52.9087 92.327 52.9849 92.0527 52.9849H91.5726Z" fill="#0F172A"/>
<path d="M101.318 53.0992C100.084 53.0992 98.9868 52.8325 98.0267 52.2991C97.0819 51.7505 96.3352 50.9961 95.7865 50.0361C95.2532 49.076 94.9865 47.9788 94.9865 46.7444C94.9865 45.4948 95.2379 44.3975 95.7408 43.4527C96.259 42.4926 96.9676 41.7383 97.8667 41.1897C98.7658 40.6411 99.8021 40.3667 100.976 40.3667C102.134 40.3667 103.139 40.6334 103.993 41.1668C104.862 41.6849 105.532 42.4088 106.004 43.3384C106.477 44.268 106.713 45.3271 106.713 46.5158C106.713 46.7596 106.637 46.9577 106.485 47.1101C106.332 47.2473 106.134 47.3159 105.89 47.3159H96.6552C96.7466 48.1388 96.9981 48.8703 97.4095 49.5103C97.821 50.1351 98.362 50.6304 99.0325 50.9961C99.703 51.3466 100.465 51.5219 101.318 51.5219C101.867 51.5219 102.416 51.4305 102.964 51.2476C103.528 51.0495 103.978 50.8057 104.313 50.5161C104.481 50.379 104.671 50.3104 104.884 50.3104C105.098 50.2951 105.281 50.3485 105.433 50.4704C105.631 50.6533 105.73 50.8514 105.73 51.0647C105.745 51.2781 105.662 51.4609 105.479 51.6133C104.976 52.04 104.336 52.3982 103.559 52.6877C102.781 52.962 102.035 53.0992 101.318 53.0992ZM100.976 41.944C99.8021 41.944 98.8344 42.3098 98.0724 43.0412C97.3105 43.7575 96.8533 44.6947 96.7009 45.8529H105.067C104.945 44.6947 104.519 43.7575 103.787 43.0412C103.071 42.3098 102.134 41.944 100.976 41.944Z" fill="#0F172A"/>
<path d="M110.331 52.9849C109.752 52.9849 109.462 52.6953 109.462 52.1162V41.3497C109.462 40.7706 109.752 40.481 110.331 40.481C110.91 40.481 111.199 40.7706 111.199 41.3497V42.3326C111.657 41.723 112.22 41.243 112.891 40.8925C113.561 40.5268 114.301 40.3439 115.108 40.3439C115.809 40.3439 116.35 40.4429 116.731 40.6411C117.112 40.8392 117.257 41.1287 117.166 41.5097C117.089 41.8602 116.906 42.0431 116.617 42.0583C116.343 42.0583 116.015 42.0431 115.634 42.0126C114.781 41.9364 114.019 42.0278 113.348 42.2869C112.693 42.5307 112.167 42.9117 111.771 43.4298C111.39 43.948 111.199 44.5652 111.199 45.2814V52.1162C111.199 52.6953 110.91 52.9849 110.331 52.9849Z" fill="#0F172A"/>
<path d="M124.069 53.0992C123.17 53.0992 122.278 52.9468 121.395 52.642C120.511 52.3372 119.794 51.88 119.246 51.2705C119.078 51.0876 119.01 50.8818 119.04 50.6533C119.071 50.4247 119.185 50.2266 119.383 50.0589C119.596 49.9065 119.817 49.8456 120.046 49.8761C120.275 49.9065 120.465 50.0056 120.617 50.1732C120.983 50.5999 121.463 50.9276 122.058 51.1562C122.667 51.3847 123.338 51.499 124.069 51.499C125.197 51.499 126.012 51.3085 126.515 50.9276C127.018 50.5313 127.277 50.0589 127.292 49.5103C127.292 48.9617 127.033 48.5121 126.515 48.1616C125.997 47.7959 125.143 47.514 123.955 47.3159C122.416 47.072 121.288 46.6453 120.572 46.0358C119.855 45.4262 119.497 44.7023 119.497 43.8642C119.497 43.087 119.703 42.4393 120.114 41.9212C120.526 41.403 121.075 41.0144 121.76 40.7553C122.446 40.4963 123.2 40.3667 124.023 40.3667C125.044 40.3667 125.921 40.542 126.652 40.8925C127.399 41.243 128.001 41.7154 128.458 42.3098C128.61 42.5079 128.671 42.7136 128.641 42.9269C128.61 43.1403 128.488 43.3155 128.275 43.4527C128.092 43.5594 127.879 43.5975 127.635 43.567C127.406 43.5213 127.208 43.407 127.041 43.2241C126.294 42.3707 125.273 41.944 123.978 41.944C123.139 41.944 122.469 42.1193 121.966 42.4698C121.463 42.805 121.212 43.2317 121.212 43.7499C121.212 44.268 121.433 44.6947 121.875 45.03C122.332 45.3652 123.185 45.6395 124.435 45.8529C125.578 46.0358 126.477 46.3101 127.132 46.6758C127.803 47.0263 128.275 47.4454 128.549 47.933C128.839 48.4055 128.984 48.9236 128.984 49.4875C128.984 50.2037 128.77 50.8361 128.344 51.3847C127.932 51.9181 127.353 52.3372 126.606 52.642C125.875 52.9468 125.029 53.0992 124.069 53.0992Z" fill="#0F172A"/>
</svg>
