<svg width="216" height="40" viewBox="0 0 216 40" fill="none" xmlns="http://www.w3.org/2000/svg">
<path d="M3.3448 32.8196C10.7305 32.8196 16.724 26.8165 16.724 19.4083V9.35202C16.724 7.49573 15.2299 5.99707 13.3792 5.99707C11.5285 5.99707 10.0344 7.49573 10.0344 9.35202V19.4083C10.0344 23.1124 7.03767 26.1182 3.3448 26.1182C1.49412 26.1182 0 27.6169 0 29.4647C0 31.3125 1.49412 32.8196 3.3448 32.8196Z" fill="#0F172A"/>
<path d="M59.4763 26.1182C55.7835 26.1182 52.7867 23.1124 52.7867 19.4083V19.0848H55.4439C57.2946 19.0848 58.7972 17.5776 58.7972 15.7213C58.7972 13.865 57.2946 12.3578 55.4439 12.3578H52.7867V9.35202C52.7867 7.50424 51.2926 5.99707 49.4419 5.99707C47.5913 5.99707 46.0971 7.49573 46.0971 9.35202V19.4083C46.0971 26.8165 52.0906 32.8196 59.4763 32.8196C61.327 32.8196 62.8211 31.321 62.8211 29.4647C62.8211 27.6084 61.327 26.1182 59.4763 26.1182Z" fill="#0F172A"/>
<path d="M44.1786 14.7081C44.1786 14.6996 44.1786 14.6996 44.1786 14.7081C44.1871 14.6996 44.1956 14.6996 44.1956 14.6996C43.1429 11.9236 41.1734 9.48831 38.4229 7.88748C32.0389 4.17489 23.8891 6.37179 20.2132 12.7922C16.5288 19.204 18.7191 27.4041 25.0946 31.1081C29.7892 33.833 35.4431 33.3561 39.5689 30.3588L39.5434 30.3248C40.4943 29.7372 41.1225 28.6813 41.1225 27.4807C41.1225 25.6329 39.6283 24.1343 37.7862 24.1343C36.8948 24.1343 36.0798 24.4834 35.4855 25.0624C33.4821 26.4163 30.8164 26.6292 28.5667 25.386L42.0393 19.1104C42.8203 18.8719 43.5165 18.344 43.9494 17.5777C44.4758 16.6665 44.5267 15.6192 44.1786 14.7081ZM35.0865 13.6863C35.4855 13.9162 35.8421 14.1801 36.1732 14.4696L25.0861 19.6213C25.0606 18.4377 25.3493 17.2371 25.9775 16.1386C27.8197 12.9369 31.8945 11.8385 35.0865 13.6863Z" fill="#0F172A"/>
<path d="M71.5014 0.00289201C73.0026 -0.0813831 73.859 1.6954 72.8615 2.82484L63.9829 12.8782C62.9432 14.0555 61.0055 13.3029 61.0258 11.7296L61.0786 7.6506C61.0855 7.11616 60.8414 6.60964 60.4197 6.28342L57.2007 3.7936C55.9592 2.83329 56.5739 0.840888 58.1387 0.753041L71.5014 0.00289201Z" fill="#F94D84"/>
<path d="M71.1935 32.7814C70.2943 32.7814 69.4028 32.629 68.5188 32.3242C67.6349 32.0194 66.9186 31.5622 66.37 30.9526C66.2024 30.7698 66.1338 30.564 66.1643 30.3354C66.1947 30.1068 66.309 29.9087 66.5072 29.7411C66.7205 29.5887 66.9415 29.5277 67.1701 29.5582C67.3987 29.5887 67.5892 29.6877 67.7416 29.8554C68.1074 30.2821 68.5874 30.6097 69.1818 30.8383C69.7914 31.0669 70.4619 31.1812 71.1935 31.1812C72.3212 31.1812 73.1366 30.9907 73.6395 30.6097C74.1424 30.2135 74.4015 29.7411 74.4167 29.1924C74.4167 28.6438 74.1576 28.1942 73.6395 27.8437C73.1213 27.4779 72.2679 27.196 71.0792 26.9979C69.5399 26.754 68.4122 26.3273 67.6959 25.7177C66.9796 25.1081 66.6215 24.3842 66.6215 23.546C66.6215 22.7688 66.8272 22.1211 67.2387 21.6029C67.6502 21.0847 68.1988 20.6961 68.8846 20.437C69.5704 20.178 70.3248 20.0484 71.1477 20.0484C72.1688 20.0484 73.0451 20.2237 73.7766 20.5742C74.5234 20.9247 75.1254 21.3972 75.5826 21.9915C75.735 22.1896 75.7959 22.3954 75.7655 22.6087C75.735 22.8221 75.6131 22.9974 75.3997 23.1345C75.2168 23.2412 75.0035 23.2793 74.7596 23.2488C74.531 23.2031 74.3329 23.0888 74.1653 22.9059C73.4185 22.0525 72.3974 21.6258 71.102 21.6258C70.2638 21.6258 69.5933 21.801 69.0903 22.1515C68.5874 22.4868 68.336 22.9135 68.336 23.4317C68.336 23.9499 68.5569 24.3766 68.9989 24.7119C69.4561 25.0471 70.3095 25.3215 71.5592 25.5348C72.7022 25.7177 73.6014 25.992 74.2567 26.3578C74.9273 26.7083 75.3997 27.1274 75.674 27.6151C75.9636 28.0875 76.1084 28.6057 76.1084 29.1696C76.1084 29.8858 75.895 30.5183 75.4683 31.0669C75.0568 31.6003 74.4777 32.0194 73.7309 32.3242C72.9994 32.629 72.1536 32.7814 71.1935 32.7814Z" fill="#0F172A"/>
<path d="M84.3622 32.7814C83.1278 32.7814 82.0305 32.5147 81.0704 31.9813C80.1255 31.4327 79.3788 30.6783 78.8301 29.7182C78.2967 28.7581 78.03 27.6608 78.03 26.4264C78.03 25.1767 78.2815 24.0794 78.7844 23.1345C79.3026 22.1744 80.0112 21.42 80.9104 20.8714C81.8095 20.3227 82.8459 20.0484 84.0194 20.0484C85.1776 20.0484 86.1834 20.3151 87.0369 20.8485C87.9056 21.3667 88.5761 22.0906 89.0486 23.0202C89.521 23.9499 89.7572 25.009 89.7572 26.1978C89.7572 26.4416 89.681 26.6397 89.5286 26.7921C89.3762 26.9293 89.1781 26.9979 88.9343 26.9979H79.6988C79.7902 27.8208 80.0417 28.5523 80.4532 29.1924C80.8647 29.8173 81.4057 30.3126 82.0763 30.6783C82.7468 31.0288 83.5088 31.2041 84.3622 31.2041C84.9109 31.2041 85.4595 31.1127 86.0082 30.9298C86.5721 30.7317 87.0216 30.4878 87.3569 30.1983C87.5246 30.0611 87.7151 29.9925 87.9284 29.9925C88.1418 29.9773 88.3247 30.0306 88.4771 30.1525C88.6752 30.3354 88.7742 30.5335 88.7742 30.7469C88.7895 30.9603 88.7057 31.1431 88.5228 31.2955C88.0199 31.7223 87.3798 32.0804 86.6025 32.37C85.8253 32.6443 85.0785 32.7814 84.3622 32.7814ZM84.0194 21.6258C82.8459 21.6258 81.8781 21.9915 81.1161 22.723C80.3541 23.4393 79.8969 24.3766 79.7445 25.5348H88.1113C87.9894 24.3766 87.5627 23.4393 86.8311 22.723C86.1149 21.9915 85.1776 21.6258 84.0194 21.6258Z" fill="#0F172A"/>
<path d="M97.3405 32.7814C96.167 32.7814 95.1154 32.5071 94.1858 31.9585C93.2562 31.3946 92.517 30.6326 91.9684 29.6725C91.435 28.7124 91.1683 27.6303 91.1683 26.4264C91.1683 25.2072 91.4426 24.1175 91.9912 23.1574C92.5551 22.1973 93.3171 21.4429 94.2772 20.8942C95.2374 20.3304 96.3194 20.0484 97.5234 20.0484C98.7273 20.0484 99.8017 20.3304 100.747 20.8942C101.707 21.4429 102.461 22.1973 103.01 23.1574C103.574 24.1175 103.863 25.2072 103.878 26.4264V31.7985C103.878 32.0575 103.795 32.2709 103.627 32.4385C103.459 32.5909 103.246 32.6671 102.987 32.6671C102.728 32.6671 102.514 32.5909 102.347 32.4385C102.179 32.2709 102.095 32.0575 102.095 31.7985V30.404C101.577 31.1355 100.907 31.7146 100.084 32.1414C99.2607 32.5681 98.3463 32.7814 97.3405 32.7814ZM97.5234 31.1812C98.4073 31.1812 99.1921 30.9755 99.8779 30.564C100.579 30.1525 101.128 29.5887 101.524 28.8724C101.935 28.1409 102.141 27.3255 102.141 26.4264C102.141 25.512 101.935 24.6966 101.524 23.9803C101.128 23.2641 100.579 22.7002 99.8779 22.2887C99.1921 21.862 98.4073 21.6486 97.5234 21.6486C96.6547 21.6486 95.8698 21.862 95.1688 22.2887C94.4677 22.7002 93.9115 23.2641 93.5 23.9803C93.0885 24.6966 92.8828 25.512 92.8828 26.4264C92.8828 27.3255 93.0885 28.1409 93.5 28.8724C93.9115 29.5887 94.4677 30.1525 95.1688 30.564C95.8698 30.9755 96.6547 31.1812 97.5234 31.1812Z" fill="#0F172A"/>
<path d="M107.713 32.6671C107.134 32.6671 106.845 32.3776 106.845 31.7985V21.0314C106.845 20.4523 107.134 20.1627 107.713 20.1627C108.292 20.1627 108.582 20.4523 108.582 21.0314V22.0144C109.039 21.4048 109.603 20.9247 110.274 20.5742C110.944 20.2084 111.683 20.0256 112.491 20.0256C113.192 20.0256 113.733 20.1246 114.114 20.3227C114.495 20.5209 114.64 20.8104 114.549 21.1914C114.472 21.5419 114.289 21.7248 114 21.7401C113.726 21.7401 113.398 21.7248 113.017 21.6943C112.163 21.6181 111.401 21.7096 110.731 21.9687C110.076 22.2125 109.55 22.5935 109.154 23.1117C108.773 23.6298 108.582 24.247 108.582 24.9633V31.7985C108.582 32.3776 108.292 32.6671 107.713 32.6671Z" fill="#0F172A"/>
<path d="M121.52 32.7814C120.316 32.7814 119.242 32.5071 118.297 31.9585C117.367 31.3946 116.628 30.6326 116.079 29.6725C115.546 28.7124 115.279 27.6303 115.279 26.4264C115.279 25.2072 115.538 24.1175 116.057 23.1574C116.575 22.1973 117.283 21.4429 118.183 20.8942C119.082 20.3304 120.118 20.0484 121.292 20.0484C123.197 20.0484 124.743 20.7799 125.932 22.243C126.1 22.4259 126.161 22.624 126.115 22.8373C126.069 23.0355 125.94 23.2107 125.726 23.3631C125.559 23.485 125.368 23.5308 125.155 23.5003C124.957 23.4546 124.781 23.3403 124.629 23.1574C123.745 22.1515 122.633 21.6486 121.292 21.6486C120.438 21.6486 119.684 21.8544 119.028 22.2658C118.388 22.6773 117.885 23.2412 117.52 23.9575C117.169 24.6738 116.994 25.4967 116.994 26.4264C116.994 27.3408 117.184 28.1561 117.565 28.8724C117.946 29.5887 118.48 30.1525 119.166 30.564C119.851 30.9755 120.636 31.1812 121.52 31.1812C122.739 31.1812 123.722 30.8536 124.469 30.1983C124.652 30.0459 124.842 29.962 125.041 29.9468C125.239 29.9316 125.422 29.9925 125.589 30.1297C125.772 30.2973 125.871 30.4878 125.886 30.7012C125.917 30.9145 125.848 31.0974 125.681 31.2498C124.568 32.2709 123.181 32.7814 121.52 32.7814Z" fill="#0F172A"/>
<path d="M129.994 32.6671C129.72 32.6671 129.499 32.5909 129.331 32.4385C129.179 32.2709 129.103 32.0575 129.103 31.7985V21.0543C129.103 20.7799 129.179 20.5666 129.331 20.4142C129.499 20.2465 129.72 20.1627 129.994 20.1627C130.253 20.1627 130.459 20.2465 130.612 20.4142C130.779 20.5666 130.863 20.7799 130.863 21.0543V21.8315C131.351 21.2676 131.953 20.8257 132.669 20.5056C133.401 20.1856 134.185 20.0256 135.024 20.0256C136.106 20.0256 137.073 20.2542 137.927 20.7114C138.78 21.1533 139.451 21.8086 139.938 22.6773C140.441 23.546 140.693 24.6052 140.693 25.8549V31.7985C140.693 32.0423 140.609 32.248 140.441 32.4157C140.274 32.5833 140.068 32.6671 139.824 32.6671C139.565 32.6671 139.352 32.5833 139.184 32.4157C139.016 32.248 138.933 32.0423 138.933 31.7985V25.8549C138.933 24.4375 138.536 23.3936 137.744 22.723C136.967 22.0372 135.999 21.6943 134.841 21.6943C134.094 21.6943 133.416 21.8391 132.806 22.1287C132.212 22.4182 131.739 22.8145 131.389 23.3174C131.038 23.8203 130.863 24.3918 130.863 25.0319V31.7985C130.863 32.0575 130.779 32.2709 130.612 32.4385C130.459 32.5909 130.253 32.6671 129.994 32.6671ZM129.994 27.5694C129.72 27.5694 129.499 27.4855 129.331 27.3179C129.179 27.1503 129.103 26.9369 129.103 26.6778V15.705C129.103 15.4307 129.179 15.2173 129.331 15.0649C129.499 14.8973 129.72 14.8135 129.994 14.8135C130.253 14.8135 130.459 14.8973 130.612 15.0649C130.779 15.2173 130.863 15.4307 130.863 15.705V26.6778C130.863 26.9369 130.779 27.1503 130.612 27.3179C130.459 27.4855 130.253 27.5694 129.994 27.5694Z" fill="#0F172A"/>
</svg>
