<svg width="216" height="40" viewBox="0 0 216 40" fill="none" xmlns="http://www.w3.org/2000/svg">
<path d="M3.3448 32.8196C10.7305 32.8196 16.724 26.8165 16.724 19.4083V9.35202C16.724 7.49573 15.2299 5.99707 13.3792 5.99707C11.5285 5.99707 10.0344 7.49573 10.0344 9.35202V19.4083C10.0344 23.1124 7.03767 26.1182 3.3448 26.1182C1.49412 26.1182 0 27.6169 0 29.4647C0 31.3125 1.49412 32.8196 3.3448 32.8196Z" fill="#0F172A"/>
<path d="M59.4763 26.1182C55.7835 26.1182 52.7867 23.1124 52.7867 19.4083V19.0848H55.4439C57.2946 19.0848 58.7972 17.5776 58.7972 15.7213C58.7972 13.865 57.2946 12.3578 55.4439 12.3578H52.7867V9.35202C52.7867 7.50424 51.2926 5.99707 49.4419 5.99707C47.5913 5.99707 46.0971 7.49573 46.0971 9.35202V19.4083C46.0971 26.8165 52.0906 32.8196 59.4763 32.8196C61.327 32.8196 62.8211 31.321 62.8211 29.4647C62.8211 27.6084 61.327 26.1182 59.4763 26.1182Z" fill="#0F172A"/>
<path d="M44.1786 14.7081C44.1786 14.6996 44.1786 14.6996 44.1786 14.7081C44.1871 14.6996 44.1956 14.6996 44.1956 14.6996C43.1429 11.9236 41.1734 9.48831 38.4229 7.88748C32.0389 4.17489 23.8891 6.37179 20.2132 12.7922C16.5288 19.204 18.7191 27.4041 25.0946 31.1081C29.7892 33.833 35.4431 33.3561 39.5689 30.3588L39.5434 30.3248C40.4943 29.7372 41.1225 28.6813 41.1225 27.4807C41.1225 25.6329 39.6283 24.1343 37.7862 24.1343C36.8948 24.1343 36.0798 24.4834 35.4855 25.0624C33.4821 26.4163 30.8164 26.6292 28.5667 25.386L42.0393 19.1104C42.8203 18.8719 43.5165 18.344 43.9494 17.5777C44.4758 16.6665 44.5267 15.6192 44.1786 14.7081ZM35.0865 13.6863C35.4855 13.9162 35.8421 14.1801 36.1732 14.4696L25.0861 19.6213C25.0606 18.4377 25.3493 17.2371 25.9775 16.1386C27.8197 12.9369 31.8945 11.8385 35.0865 13.6863Z" fill="#0F172A"/>
<path d="M71.5014 0.00289201C73.0026 -0.0813831 73.859 1.6954 72.8615 2.82484L63.9829 12.8782C62.9432 14.0555 61.0055 13.3029 61.0258 11.7296L61.0786 7.6506C61.0855 7.11616 60.8414 6.60964 60.4197 6.28342L57.2007 3.7936C55.9592 2.83329 56.5739 0.840888 58.1387 0.753041L71.5014 0.00289201Z" fill="#D652EB"/>
<path d="M69.6619 32.6671C69.2352 32.6671 68.9532 32.4766 68.8161 32.0956L65.2499 21.3972C65.0518 20.5742 65.2728 20.1627 65.9129 20.1627C66.3243 20.1627 66.6139 20.3837 66.7815 20.8257L69.7076 29.7411L72.4051 20.8485C72.4661 20.6504 72.5651 20.4904 72.7023 20.3685C72.8547 20.2313 73.0452 20.1627 73.2738 20.1627C73.7157 20.1627 74.0053 20.3913 74.1425 20.8485L76.7714 29.6953L79.6746 20.8257C79.827 20.3837 80.1089 20.1627 80.5204 20.1627C80.8557 20.1627 81.0843 20.2923 81.2062 20.5513C81.3281 20.7952 81.3281 21.0771 81.2062 21.3972L77.64 32.0956C77.5181 32.4766 77.2438 32.6671 76.8171 32.6671C76.619 32.6671 76.4361 32.6138 76.2684 32.5071C76.116 32.4004 76.017 32.2633 75.9713 32.0956L73.2281 22.9974L70.4849 32.0956C70.3477 32.4766 70.0734 32.6671 69.6619 32.6671Z" fill="#0F172A"/>
<path d="M88.3089 32.7814C87.0897 32.7814 86 32.5071 85.0399 31.9585C84.0798 31.4098 83.3254 30.6555 82.7768 29.6953C82.2281 28.7352 81.9538 27.6456 81.9538 26.4264C81.9538 25.1919 82.2281 24.0946 82.7768 23.1345C83.3254 22.1744 84.0798 21.42 85.0399 20.8714C86 20.3227 87.0897 20.0484 88.3089 20.0484C89.5281 20.0484 90.6101 20.3227 91.555 20.8714C92.5151 21.42 93.2695 22.1744 93.8181 23.1345C94.3668 24.0946 94.6487 25.1919 94.664 26.4264C94.664 27.6456 94.382 28.7352 93.8181 29.6953C93.2695 30.6555 92.5151 31.4098 91.555 31.9585C90.6101 32.5071 89.5281 32.7814 88.3089 32.7814ZM88.3089 31.1812C89.1928 31.1812 89.9853 30.9755 90.6863 30.564C91.3874 30.1525 91.936 29.5887 92.3322 28.8724C92.7285 28.1561 92.9266 27.3408 92.9266 26.4264C92.9266 25.512 92.7285 24.6966 92.3322 23.9803C91.936 23.2488 91.3874 22.6773 90.6863 22.2658C89.9853 21.8544 89.1928 21.6486 88.3089 21.6486C87.425 21.6486 86.6325 21.8544 85.9314 22.2658C85.2304 22.6773 84.6741 23.2488 84.2627 23.9803C83.8664 24.6966 83.6683 25.512 83.6683 26.4264C83.6683 27.3408 83.8664 28.1561 84.2627 28.8724C84.6741 29.5887 85.2304 30.1525 85.9314 30.564C86.6325 30.9755 87.425 31.1812 88.3089 31.1812Z" fill="#0F172A"/>
<path d="M103.094 32.7814C101.875 32.7814 100.785 32.5071 99.8248 31.9585C98.8647 31.4098 98.1103 30.6555 97.5616 29.6953C97.013 28.7352 96.7387 27.6456 96.7387 26.4264C96.7387 25.1919 97.013 24.0946 97.5616 23.1345C98.1103 22.1744 98.8647 21.42 99.8248 20.8714C100.785 20.3227 101.875 20.0484 103.094 20.0484C104.313 20.0484 105.395 20.3227 106.34 20.8714C107.3 21.42 108.054 22.1744 108.603 23.1345C109.152 24.0946 109.434 25.1919 109.449 26.4264C109.449 27.6456 109.167 28.7352 108.603 29.6953C108.054 30.6555 107.3 31.4098 106.34 31.9585C105.395 32.5071 104.313 32.7814 103.094 32.7814ZM103.094 31.1812C103.978 31.1812 104.77 30.9755 105.471 30.564C106.172 30.1525 106.721 29.5887 107.117 28.8724C107.513 28.1561 107.711 27.3408 107.711 26.4264C107.711 25.512 107.513 24.6966 107.117 23.9803C106.721 23.2488 106.172 22.6773 105.471 22.2658C104.77 21.8544 103.978 21.6486 103.094 21.6486C102.21 21.6486 101.417 21.8544 100.716 22.2658C100.015 22.6773 99.459 23.2488 99.0475 23.9803C98.6513 24.6966 98.4532 25.512 98.4532 26.4264C98.4532 27.3408 98.6513 28.1561 99.0475 28.8724C99.459 29.5887 100.015 30.1525 100.716 30.564C101.417 30.9755 102.21 31.1812 103.094 31.1812Z" fill="#0F172A"/>
<path d="M118.519 32.7814C117.33 32.7814 116.256 32.5071 115.295 31.9585C114.351 31.4098 113.596 30.6631 113.032 29.7182C112.484 28.7581 112.202 27.6837 112.187 26.4949V15.705C112.187 15.4307 112.263 15.2173 112.415 15.0649C112.583 14.8973 112.804 14.8135 113.078 14.8135C113.337 14.8135 113.543 14.8973 113.695 15.0649C113.863 15.2173 113.947 15.4307 113.947 15.705V22.4259C114.45 21.7096 115.113 21.1381 115.936 20.7114C116.774 20.2694 117.703 20.0484 118.724 20.0484C119.898 20.0484 120.95 20.3304 121.879 20.8942C122.809 21.4429 123.54 22.1973 124.074 23.1574C124.622 24.1175 124.897 25.1995 124.897 26.4035C124.897 27.6227 124.615 28.7124 124.051 29.6725C123.502 30.6326 122.748 31.3946 121.788 31.9585C120.828 32.5071 119.738 32.7814 118.519 32.7814ZM118.519 31.1812C119.403 31.1812 120.195 30.9755 120.896 30.564C121.597 30.1373 122.146 29.5658 122.542 28.8495C122.954 28.1332 123.159 27.3179 123.159 26.4035C123.159 25.5043 122.954 24.6966 122.542 23.9803C122.146 23.2488 121.597 22.6773 120.896 22.2658C120.195 21.8544 119.403 21.6486 118.519 21.6486C117.65 21.6486 116.865 21.8544 116.164 22.2658C115.463 22.6773 114.914 23.2488 114.518 23.9803C114.122 24.6966 113.924 25.5043 113.924 26.4035C113.924 27.3179 114.122 28.1332 114.518 28.8495C114.914 29.5658 115.463 30.1373 116.164 30.564C116.865 30.9755 117.65 31.1812 118.519 31.1812Z" fill="#0F172A"/>
<path d="M133.104 32.8043C132.022 32.8043 131.054 32.5833 130.201 32.1414C129.347 31.6842 128.669 31.0212 128.166 30.1525C127.679 29.2839 127.435 28.2247 127.435 26.975V21.0314C127.435 20.7876 127.519 20.5818 127.686 20.4142C127.854 20.2465 128.06 20.1627 128.304 20.1627C128.563 20.1627 128.776 20.2465 128.944 20.4142C129.111 20.5818 129.195 20.7876 129.195 21.0314V26.975C129.195 28.3771 129.584 29.421 130.361 30.1068C131.138 30.7926 132.114 31.1355 133.287 31.1355C134.034 31.1355 134.704 30.9907 135.299 30.7012C135.908 30.4116 136.388 30.0154 136.739 29.5125C137.089 29.0095 137.265 28.438 137.265 27.798V21.0314C137.265 20.7723 137.341 20.5666 137.493 20.4142C137.661 20.2465 137.874 20.1627 138.133 20.1627C138.392 20.1627 138.606 20.2465 138.773 20.4142C138.941 20.5666 139.025 20.7723 139.025 21.0314V31.7756C139.025 32.0499 138.941 32.2709 138.773 32.4385C138.606 32.5909 138.392 32.6671 138.133 32.6671C137.874 32.6671 137.661 32.5909 137.493 32.4385C137.341 32.2709 137.265 32.0499 137.265 31.7756V30.9984C136.762 31.5622 136.152 32.0042 135.436 32.3242C134.72 32.6443 133.942 32.8043 133.104 32.8043Z" fill="#0F172A"/>
<path d="M143.706 32.6671C143.431 32.6671 143.21 32.5909 143.043 32.4385C142.89 32.2709 142.814 32.0499 142.814 31.7756V21.0543C142.814 20.7799 142.89 20.5666 143.043 20.4142C143.21 20.2465 143.431 20.1627 143.706 20.1627C143.965 20.1627 144.17 20.2465 144.323 20.4142C144.49 20.5666 144.574 20.7799 144.574 21.0543V31.7756C144.574 32.0499 144.49 32.2709 144.323 32.4385C144.17 32.5909 143.965 32.6671 143.706 32.6671ZM143.683 17.7853C143.347 17.7853 143.058 17.6634 142.814 17.4195C142.57 17.1757 142.448 16.8785 142.448 16.528C142.448 16.147 142.57 15.8498 142.814 15.6364C143.073 15.4078 143.37 15.2935 143.706 15.2935C144.026 15.2935 144.308 15.4078 144.551 15.6364C144.811 15.8498 144.94 16.147 144.94 16.528C144.94 16.8785 144.818 17.1757 144.574 17.4195C144.33 17.6634 144.033 17.7853 143.683 17.7853Z" fill="#0F172A"/>
<path d="M151.068 32.6671C150.154 32.6671 149.399 32.3014 148.805 31.5699C148.21 30.8231 147.913 29.8706 147.913 28.7124V15.6822C147.913 15.4231 147.989 15.2173 148.142 15.0649C148.31 14.8973 148.523 14.8135 148.782 14.8135C149.041 14.8135 149.247 14.8973 149.399 15.0649C149.567 15.2173 149.651 15.4231 149.651 15.6822V28.7124C149.651 29.3677 149.78 29.9011 150.039 30.3126C150.314 30.724 150.656 30.9298 151.068 30.9298H151.639C151.868 30.9298 152.051 31.0136 152.188 31.1812C152.325 31.3336 152.394 31.5394 152.394 31.7985C152.394 32.0575 152.295 32.2709 152.097 32.4385C151.914 32.5909 151.67 32.6671 151.365 32.6671H151.068Z" fill="#0F172A"/>
<path d="M159.136 32.7814C157.933 32.7814 156.85 32.5071 155.89 31.9585C154.93 31.3946 154.168 30.6326 153.604 29.6725C153.056 28.7124 152.781 27.6227 152.781 26.4035C152.781 25.1995 153.048 24.1175 153.581 23.1574C154.13 22.1973 154.869 21.4429 155.799 20.8942C156.729 20.3304 157.78 20.0484 158.954 20.0484C159.975 20.0484 160.897 20.2694 161.72 20.7114C162.543 21.1381 163.206 21.7096 163.708 22.4259V15.705C163.708 15.4307 163.792 15.2173 163.96 15.0649C164.128 14.8973 164.341 14.8135 164.6 14.8135C164.859 14.8135 165.072 14.8973 165.24 15.0649C165.408 15.2173 165.492 15.4307 165.492 15.705V26.4949C165.461 27.6837 165.164 28.7581 164.6 29.7182C164.051 30.6631 163.297 31.4098 162.337 31.9585C161.392 32.5071 160.325 32.7814 159.136 32.7814ZM159.136 31.1812C160.02 31.1812 160.805 30.9755 161.491 30.564C162.192 30.1373 162.741 29.5658 163.137 28.8495C163.548 28.1332 163.754 27.3179 163.754 26.4035C163.754 25.5043 163.548 24.6966 163.137 23.9803C162.741 23.2488 162.192 22.6773 161.491 22.2658C160.805 21.8544 160.02 21.6486 159.136 21.6486C158.268 21.6486 157.483 21.8544 156.782 22.2658C156.081 22.6773 155.525 23.2488 155.113 23.9803C154.702 24.6966 154.496 25.5043 154.496 26.4035C154.496 27.3179 154.702 28.1332 155.113 28.8495C155.525 29.5658 156.081 30.1373 156.782 30.564C157.483 30.9755 158.268 31.1812 159.136 31.1812Z" fill="#0F172A"/>
<path d="M174.591 32.7814C173.356 32.7814 172.259 32.5147 171.299 31.9813C170.354 31.4327 169.607 30.6783 169.058 29.7182C168.525 28.7581 168.258 27.6608 168.258 26.4264C168.258 25.1767 168.51 24.0794 169.013 23.1345C169.531 22.1744 170.24 21.42 171.139 20.8714C172.038 20.3227 173.074 20.0484 174.248 20.0484C175.406 20.0484 176.412 20.3151 177.265 20.8485C178.134 21.3667 178.804 22.0906 179.277 23.0202C179.749 23.9499 179.986 25.009 179.986 26.1978C179.986 26.4416 179.909 26.6397 179.757 26.7921C179.605 26.9293 179.406 26.9979 179.163 26.9979H169.927C170.019 27.8208 170.27 28.5523 170.681 29.1924C171.093 29.8173 171.634 30.3126 172.305 30.6783C172.975 31.0288 173.737 31.2041 174.591 31.2041C175.139 31.2041 175.688 31.1127 176.236 30.9298C176.8 30.7317 177.25 30.4878 177.585 30.1983C177.753 30.0611 177.943 29.9925 178.157 29.9925C178.37 29.9773 178.553 30.0306 178.705 30.1525C178.903 30.3354 179.003 30.5335 179.003 30.7469C179.018 30.9603 178.934 31.1431 178.751 31.2955C178.248 31.7223 177.608 32.0804 176.831 32.37C176.054 32.6443 175.307 32.7814 174.591 32.7814ZM174.248 21.6258C173.074 21.6258 172.106 21.9915 171.344 22.723C170.582 23.4393 170.125 24.3766 169.973 25.5348H178.34C178.218 24.3766 177.791 23.4393 177.059 22.723C176.343 21.9915 175.406 21.6258 174.248 21.6258Z" fill="#0F172A"/>
<path d="M183.146 32.6671C182.567 32.6671 182.277 32.3776 182.277 31.7985V21.0314C182.277 20.4523 182.567 20.1627 183.146 20.1627C183.725 20.1627 184.015 20.4523 184.015 21.0314V22.0144C184.472 21.4048 185.036 20.9247 185.706 20.5742C186.377 20.2084 187.116 20.0256 187.924 20.0256C188.625 20.0256 189.166 20.1246 189.547 20.3227C189.928 20.5209 190.073 20.8104 189.981 21.1914C189.905 21.5419 189.722 21.7248 189.433 21.7401C189.158 21.7401 188.831 21.7248 188.45 21.6943C187.596 21.6181 186.834 21.7096 186.164 21.9687C185.508 22.2125 184.982 22.5935 184.586 23.1117C184.205 23.6298 184.015 24.247 184.015 24.9633V31.7985C184.015 32.3776 183.725 32.6671 183.146 32.6671Z" fill="#0F172A"/>
</svg>
