
<svg width="200" height="60" viewBox="0 0 200 60" fill="none" xmlns="http://www.w3.org/2000/svg">
  <!-- L -->
  <path d="M10 10H20V45H40V55H10V10Z" fill="#3A6B5F"/>
  
  <!-- O -->
  <path d="M50 32.5C50 20.35 59.85 10.5 72 10.5C84.15 10.5 94 20.35 94 32.5C94 44.65 84.15 54.5 72 54.5C59.85 54.5 50 44.65 50 32.5ZM60 32.5C60 39.13 65.37 44.5 72 44.5C78.63 44.5 84 39.13 84 32.5C84 25.87 78.63 20.5 72 20.5C65.37 20.5 60 25.87 60 32.5Z" fill="#3A6B5F"/>
  
  <!-- W -->
  <path d="M100 10H110L118 40L126 10H136L144 40L152 10H162L150 55H140L132 25L124 55H114L100 10Z" fill="#3A6B5F"/>
  
  <!-- F -->
  <path d="M168 10H198V20H178V27.5H193V37.5H178V55H168V10Z" fill="#3A6B5F"/>
  
  <!-- Y -->
  <path d="M204 10H214L224 30L234 10H244L229 37.5V55H219V37.5L204 10Z" fill="#3A6B5F"/>
</svg>
